<?xml version="1.0" encoding="utf-8"?>
<!-- Generator: Adobe Illustrator 16.0.0, SVG Export Plug-In . SVG Version: 6.00 Build 0)  -->
<!DOCTYPE svg PUBLIC "-//W3C//DTD SVG 1.1//EN" "http://www.w3.org/Graphics/SVG/1.1/DTD/svg11.dtd">
<svg version="1.1" id="Layer_1" xmlns="http://www.w3.org/2000/svg" xmlns:xlink="http://www.w3.org/1999/xlink" x="0px" y="0px"
	 width="335px" height="222px" viewBox="0 0 335 222" enable-background="new 0 0 335 222" xml:space="preserve">
<g>
	<path fill="#FEFEFD" d="M66.667,147.145c-24.877,0-45.117-20.24-45.117-45.117c0-24.875,20.24-45.117,45.117-45.117
		c24.874,0,45.114,20.242,45.114,45.117C111.781,126.904,91.541,147.145,66.667,147.145z M66.667,58.708
		c-23.89,0-43.328,19.438-43.328,43.328c0,23.888,19.438,43.326,43.328,43.326c23.887,0,43.325-19.438,43.325-43.326
		C109.992,78.146,90.554,58.708,66.667,58.708z"/>
	<path fill="#FEFEFD" d="M66.667,169.058c-17.711,0-34.367-6.897-46.893-19.416C7.247,137.113,0.355,120.466,0.355,102.755
		c0-17.711,6.897-34.365,19.419-46.886C32.3,43.344,48.947,36.453,66.667,36.453c17.717,0,34.365,6.897,46.884,19.417
		c12.527,12.528,19.419,29.175,19.419,46.886c0,17.71-6.898,34.365-19.419,46.886C101.025,162.169,84.375,169.058,66.667,169.058
		L66.667,169.058z M66.667,38.229c-17.239,0-33.44,6.712-45.625,18.896C8.857,69.309,2.144,85.512,2.144,102.749
		c0,17.236,6.713,33.439,18.898,45.622c12.185,12.186,28.386,18.898,45.625,18.898c17.236,0,33.439-6.713,45.623-18.898
		c12.185-12.183,18.897-28.386,18.897-45.622c0-17.237-6.712-33.44-18.897-45.625C100.106,44.941,83.903,38.229,66.667,38.229z"/>
	<path fill="#FEFEFD" d="M39.219,111.524h-5.513v-5.341h4.018V90.325l-4.018-0.042v-4.894h15.469v4.894l-4.018,0.042v15.852h4.018
		v5.347H39.219z"/>
	<path fill="#FEFEFD" d="M66.652,112.012c-1.302,0-2.427-0.145-3.374-0.425c-0.946-0.281-1.782-0.691-2.516-1.234
		c-0.733-0.542-1.365-1.227-1.886-2.063h0.049l-2.001,3.564h-5.088v-9.441h4.545c0.817,1.03,1.653,1.866,2.516,2.51
		c0.864,0.651,1.783,1.132,2.763,1.44c0.98,0.309,2.105,0.466,3.373,0.466c0.851,0,1.584-0.102,2.202-0.302
		c0.617-0.207,1.083-0.472,1.393-0.809c0.308-0.336,0.466-0.721,0.466-1.152c0-0.432-0.179-0.823-0.536-1.172
		c-0.355-0.349-0.876-0.666-1.563-0.953c-0.685-0.281-1.61-0.521-2.791-0.706l-4.594-0.891c-1.891-0.379-3.454-0.925-4.696-1.64
		c-1.24-0.712-2.159-1.604-2.763-2.673s-0.906-2.276-0.906-3.626s0.434-2.701,1.298-3.888c0.863-1.187,2.035-2.127,3.516-2.818
		c1.482-0.685,3.142-1.036,4.964-1.036c1.242,0,2.306,0.145,3.203,0.425s1.638,0.685,2.229,1.215c0.589,0.527,1.11,1.15,1.563,1.884
		l-0.098,0.207l1.421-3.69h5.183v8.386h-4.792c-0.619-0.808-1.31-1.453-2.078-1.927c-0.768-0.472-1.591-0.83-2.47-1.076
		c-0.876-0.24-1.81-0.364-2.791-0.364c-0.78,0-1.459,0.096-2.029,0.281c-0.57,0.193-1.002,0.447-1.295,0.768
		c-0.295,0.324-0.44,0.688-0.44,1.098c0,0.351,0.117,0.679,0.345,0.974c0.226,0.296,0.645,0.577,1.247,0.83
		c0.604,0.253,1.427,0.494,2.469,0.706l4.647,0.891c3.163,0.679,5.485,1.646,6.968,2.914c1.48,1.27,2.227,2.969,2.227,5.103
		c0,1.591-0.417,3.01-1.246,4.25c-0.83,1.242-1.995,2.216-3.497,2.914c-1.502,0.7-3.209,1.058-5.137,1.058V112.012z"/>
	<path fill="#FEFEFD" d="M90.801,112.135c-2.907,0-5.355-0.548-7.344-1.638c-1.986-1.097-3.497-2.667-4.511-4.717
		c-1.014-2.05-1.529-4.511-1.529-7.372c0-2.858,0.549-5.203,1.659-7.274c1.104-2.063,2.703-3.648,4.801-4.739
		c2.09-1.096,4.545-1.638,7.372-1.638c2.825,0,5.273,0.542,7.281,1.618c2.01,1.083,3.518,2.652,4.532,4.718
		c1.015,2.063,1.529,4.518,1.529,7.349c0,2.833-0.562,5.239-1.68,7.295c-1.117,2.05-2.708,3.635-4.773,4.739
		c-2.063,1.104-4.505,1.659-7.323,1.659H90.801z M91.02,106.862c1.393,0,2.544-0.321,3.441-0.974c0.9-0.651,1.572-1.589,2.01-2.837
		c0.438-1.242,0.65-2.784,0.65-4.622c0-1.838-0.212-3.422-0.629-4.677c-0.425-1.253-1.084-2.193-1.982-2.816
		c-0.897-0.625-2.063-0.934-3.49-0.934c-1.425,0-2.584,0.309-3.49,0.934c-0.897,0.623-1.563,1.555-1.98,2.816
		c-0.426,1.255-0.632,2.805-0.632,4.643c0,1.837,0.206,3.414,0.61,4.656c0.404,1.24,1.063,2.187,1.961,2.837
		C88.387,106.541,89.567,106.862,91.02,106.862L91.02,106.862z"/>
	<g>
		<path fill="#FEFEFD" d="M49.345,75.699c0.885,0.68,1.874,1.289,2.929,1.837c-1.159,1.359-2.208,2.88-3.126,4.56h0.768
			c0.885-1.563,1.878-2.982,2.969-4.243c1.529,0.74,3.216,1.344,5.004,1.81c-0.336,0.768-0.65,1.576-0.946,2.439h0.715
			c0.281-0.802,0.574-1.563,0.891-2.275c2.439,0.576,5.066,0.897,7.782,0.918v1.357H67v-1.357c2.695-0.027,5.315-0.336,7.742-0.912
			c0.315,0.714,0.617,1.467,0.897,2.269h0.715c-0.296-0.857-0.617-1.665-0.953-2.433c1.878-0.487,3.639-1.131,5.23-1.92
			c1.153,1.297,2.195,2.756,3.107,4.347h0.774c-0.946-1.708-2.05-3.271-3.271-4.662c0.98-0.521,1.899-1.104,2.729-1.735
			c2.325,1.776,4.396,3.93,6.117,6.397h0.808c0,0-0.013-0.034-0.027-0.047c-5.443-8.063-14.501-12.878-24.217-12.878
			s-18.809,4.834-24.245,12.925h0.816c1.721-2.467,3.784-4.622,6.108-6.397H49.345z M75.128,79.046
			c-1.153-2.455-2.519-4.369-4.026-5.658c0.899-0.234,1.735-0.542,2.503-0.913c2.38,1.057,4.607,2.688,6.562,4.76
			C78.631,77.983,76.929,78.587,75.128,79.046z M75.511,71.243c2.833,0.925,5.5,2.284,7.906,4.033
			c-0.802,0.595-1.687,1.144-2.633,1.638c-1.912-2.072-4.101-3.722-6.438-4.841c0.377-0.219,0.734-0.453,1.063-0.706
			c0.047-0.034,0.075-0.083,0.096-0.13L75.511,71.243z M67.003,69.843c2.659,0.036,5.272,0.432,7.761,1.166
			c-1.2,0.857-2.738,1.501-4.45,1.872c-0.021,0-0.049,0.008-0.07,0.015c-1.027,0.219-2.118,0.343-3.241,0.364v-3.422V69.843z
			 M67.003,73.938c1.129-0.021,2.233-0.145,3.275-0.357c1.563,1.193,2.984,3.107,4.184,5.624c-2.346,0.541-4.862,0.836-7.459,0.864
			V73.938z M58.17,79.038c-1.721-0.438-3.339-1.014-4.813-1.714c1.908-2.084,4.094-3.709,6.481-4.798
			c0.719,0.342,1.501,0.623,2.331,0.842c-1.502,1.289-2.853,3.21-3.999,5.664V79.038z M66.331,80.067
			c-2.614-0.021-5.143-0.323-7.495-0.87c1.187-2.524,2.599-4.437,4.147-5.63c1.063,0.226,2.188,0.349,3.348,0.37V80.067
			L66.331,80.067z M66.331,69.843v3.422c-1.159-0.021-2.284-0.151-3.339-0.385c-0.015,0-0.027-0.006-0.042-0.006
			c-1.055-0.232-2.05-0.568-2.933-1c-0.021-0.015-0.042-0.028-0.07-0.037c-0.5-0.247-0.959-0.521-1.385-0.821
			c2.488-0.734,5.103-1.138,7.77-1.166V69.843z M57.821,71.243c0.021,0.049,0.055,0.096,0.096,0.13
			c0.357,0.274,0.755,0.527,1.166,0.768c-2.337,1.146-4.477,2.799-6.355,4.875c-1.015-0.521-1.961-1.095-2.818-1.733
			c2.406-1.749,5.073-3.114,7.906-4.033L57.821,71.243z"/>
		<path fill="#FEFEFD" d="M84.061,120.993c-0.842-0.644-1.77-1.227-2.763-1.761c1.24-1.427,2.359-3.031,3.318-4.785
			c0.015-0.028,0.021-0.049,0.028-0.077h-0.755c-0.932,1.666-2.008,3.188-3.201,4.546c-1.653-0.815-3.476-1.48-5.43-1.975
			c0.364-0.795,0.706-1.638,1.021-2.543c0-0.007,0-0.014,0-0.028h-0.712c-0.309,0.851-0.638,1.653-0.987,2.414
			c-2.387-0.549-4.945-0.851-7.579-0.872v-1.535h-0.67v1.535c-2.648,0.021-5.219,0.33-7.619,0.885
			c-0.349-0.761-0.678-1.563-0.98-2.42h-0.712c0,0,0,0.015,0,0.027c0.315,0.906,0.657,1.755,1.015,2.551
			c-1.866,0.474-3.614,1.104-5.198,1.871c-1.132-1.314-2.159-2.803-3.065-4.441h-0.753c0,0,0.013,0.047,0.027,0.075
			c0.932,1.727,2.001,3.29,3.18,4.684c-1.068,0.555-2.063,1.178-2.961,1.865c-2.38-1.832-4.486-4.061-6.226-6.617H42.25
			c0,0,0.021,0.068,0.041,0.096c5.43,8.208,14.544,13.102,24.368,13.102c9.827,0,18.938-4.894,24.368-13.102
			c0.021-0.034,0.034-0.062,0.042-0.096H90.28c-1.742,2.563-3.848,4.785-6.226,6.623L84.061,120.993z M58.329,117.565
			c1.191,2.469,2.597,4.362,4.154,5.581c-1.008,0.24-1.955,0.563-2.818,0.961c-2.344-1.098-4.484-2.716-6.362-4.772
			c1.536-0.728,3.222-1.323,5.018-1.776L58.329,117.565z M57.559,125.418c-2.769-0.934-5.375-2.284-7.727-4.005
			c0.866-0.651,1.825-1.234,2.853-1.764c1.846,2.051,3.943,3.69,6.234,4.85c-0.459,0.253-0.891,0.533-1.283,0.836
			c-0.034,0.027-0.055,0.055-0.077,0.089V125.418z M66.331,126.898c-2.756-0.034-5.445-0.46-8.01-1.242
			c0.453-0.321,0.953-0.617,1.489-0.87c0.013,0,0.028-0.007,0.041-0.021c1.825-0.876,4.088-1.372,6.487-1.419v3.546L66.331,126.898z
			 M66.331,122.681c-1.017,0.021-2.016,0.116-2.963,0.289c-1.604-1.091-3.099-3.012-4.36-5.556c2.303-0.521,4.771-0.809,7.323-0.829
			v6.102V122.681z M74.962,117.559c1.887,0.466,3.654,1.098,5.253,1.872c-1.92,2.05-4.107,3.669-6.447,4.738
			c-0.91-0.44-1.918-0.782-2.995-1.029c1.563-1.228,2.982-3.111,4.182-5.574L74.962,117.559z M67.003,116.578
			c2.529,0.021,4.983,0.309,7.28,0.823c-1.268,2.537-2.778,4.456-4.388,5.554c-0.925-0.164-1.899-0.254-2.886-0.274v-6.103H67.003z
			 M67.003,126.898v-3.546c0.993,0.021,1.959,0.117,2.886,0.28l0,0c1.351,0.247,2.605,0.653,3.701,1.188l0,0
			c0.508,0.253,0.98,0.527,1.415,0.836c-2.565,0.782-5.253,1.208-8.01,1.242H67.003z M75.772,125.418c0,0-0.049-0.064-0.077-0.09
			c-0.363-0.282-0.761-0.536-1.178-0.776c2.297-1.123,4.435-2.763,6.315-4.805c0.959,0.5,1.851,1.055,2.667,1.666
			C81.141,123.134,78.535,124.484,75.772,125.418L75.772,125.418z"/>
	</g>
	<g>
		<path fill="#FEFEFD" d="M7.253,107.432l-0.083-1.351l6.509-0.397l0.081,1.351L7.253,107.432z"/>
		<path fill="#FEFEFD" d="M9.735,102.379c-0.006,0.425,0.172,0.727,0.527,0.891c0.193,0.089,0.432,0.129,0.734,0.136l2.614,0.042
			l-0.021,1.255l-4.813-0.077l0.019-1.212l0.708,0.013c-0.249-0.164-0.419-0.321-0.53-0.466c-0.191-0.262-0.281-0.598-0.274-0.995
			c0.009-0.5,0.145-0.904,0.413-1.212c0.268-0.315,0.7-0.466,1.302-0.453l3.25,0.055l-0.019,1.289l-2.935-0.049
			c-0.253,0-0.447,0.027-0.583,0.089c-0.247,0.117-0.376,0.357-0.385,0.7L9.735,102.379z"/>
		<path fill="#FEFEFD" d="M7.404,96.536l1.021,0.089c-0.013,0.068-0.034,0.185-0.046,0.351c-0.021,0.164,0.006,0.28,0.083,0.355
			c0.075,0.068,0.158,0.111,0.247,0.117l0.404,0.034l0.075-0.823l0.885,0.077l-0.074,0.823l3.873,0.336l-0.111,1.255l-3.873-0.336
			l-0.062,0.698L8.94,99.437l0.062-0.685l-0.309-0.028c-0.515-0.049-0.863-0.166-1.042-0.351c-0.274-0.204-0.376-0.657-0.315-1.357
			c0.006-0.083,0.013-0.151,0.028-0.212c0.013-0.062,0.027-0.151,0.041-0.26V96.536z"/>
		<path fill="#FEFEFD" d="M10.484,91.889c0.568-0.317,1.2-0.419,1.884-0.309c0.7,0.115,1.262,0.417,1.693,0.898
			c0.432,0.487,0.576,1.131,0.44,1.955c-0.138,0.814-0.487,1.385-1.05,1.706c-0.562,0.323-1.193,0.419-1.891,0.302
			c-0.687-0.117-1.249-0.411-1.687-0.897c-0.44-0.487-0.591-1.138-0.453-1.955c0.136-0.816,0.487-1.384,1.055-1.699H10.484z
			 M10.476,93.767c-0.062,0.364,0.021,0.666,0.247,0.904c0.228,0.24,0.576,0.397,1.057,0.48c0.479,0.083,0.863,0.041,1.15-0.108
			c0.29-0.151,0.468-0.413,0.53-0.776s-0.021-0.664-0.247-0.904c-0.228-0.24-0.577-0.398-1.057-0.475
			c-0.481-0.081-0.864-0.04-1.151,0.111c-0.289,0.151-0.468,0.411-0.529,0.774V93.767z"/>
		<path fill="#FEFEFD" d="M11.977,88.047c-0.124,0.494-0.047,0.866,0.234,1.112c0.157,0.136,0.425,0.26,0.795,0.349l2.235,0.562
			l-0.308,1.236l-4.677-1.181l0.295-1.166l0.815,0.206c-0.266-0.268-0.438-0.487-0.513-0.65c-0.138-0.274-0.16-0.598-0.062-0.968
			c0-0.021,0.013-0.041,0.013-0.056c0-0.013,0.013-0.047,0.034-0.102l1.255,0.315c-0.027,0.077-0.046,0.145-0.068,0.2
			c-0.021,0.062-0.034,0.109-0.042,0.143H11.977z"/>
		<path fill="#FEFEFD" d="M13.336,84.332c-0.255,0.021-0.44,0.172-0.542,0.466c-0.124,0.336-0.096,0.604,0.074,0.802
			c0.104,0.11,0.274,0.212,0.521,0.302l2.723,1.008l-0.445,1.2l-4.52-1.666l0.425-1.153l0.66,0.247
			c-0.179-0.232-0.296-0.432-0.351-0.602c-0.089-0.295-0.068-0.625,0.062-0.987c0.13-0.344,0.309-0.598,0.536-0.755
			c0.204-0.117,0.432-0.185,0.685-0.191c-0.207-0.255-0.33-0.515-0.37-0.795c-0.034-0.29,0-0.583,0.117-0.885
			c0.075-0.2,0.185-0.385,0.336-0.549c0.151-0.164,0.349-0.287,0.602-0.376c0.207-0.07,0.432-0.083,0.679-0.042
			c0.166,0.027,0.391,0.096,0.687,0.206l2.846,1.063l-0.447,1.212l-2.88-1.061c-0.17-0.062-0.321-0.089-0.453-0.077
			c-0.247,0.027-0.423,0.185-0.527,0.466c-0.123,0.33-0.068,0.604,0.157,0.83c0.124,0.117,0.283,0.212,0.487,0.289l2.695,0.993
			l-0.438,1.193l-2.695-0.993c-0.268-0.096-0.475-0.145-0.617-0.13L13.336,84.332z"/>
		<path fill="#FEFEFD" d="M14.768,78.695c-0.226-0.493-0.151-1.098,0.219-1.816c0.24-0.474,0.548-0.836,0.918-1.11
			c0.373-0.268,0.817-0.274,1.338,0l1.968,1.008c0.138,0.068,0.302,0.149,0.502,0.247c0.151,0.068,0.259,0.096,0.336,0.089
			c0.068-0.008,0.143-0.042,0.212-0.098l0.164,0.083l-0.624,1.221c-0.104-0.015-0.2-0.028-0.283-0.055
			c-0.081-0.028-0.17-0.062-0.274-0.102c0.089,0.24,0.138,0.493,0.16,0.753c0.013,0.317-0.055,0.625-0.213,0.927
			c-0.2,0.389-0.474,0.651-0.823,0.795c-0.351,0.136-0.734,0.102-1.138-0.104c-0.529-0.268-0.804-0.672-0.83-1.2
			c-0.015-0.287,0.062-0.666,0.226-1.125l0.151-0.404c0.083-0.219,0.124-0.383,0.13-0.494c0.015-0.191-0.047-0.33-0.198-0.404
			c-0.179-0.089-0.33-0.089-0.459,0c-0.132,0.089-0.255,0.247-0.378,0.487c-0.136,0.266-0.164,0.487-0.089,0.664
			c0.055,0.132,0.159,0.247,0.317,0.357l-0.555,1.083c-0.364-0.219-0.619-0.479-0.762-0.787L14.768,78.695z M18.211,79.408
			c0.136-0.062,0.247-0.164,0.328-0.321c0.124-0.241,0.166-0.5,0.132-0.774s-0.24-0.515-0.61-0.715l-0.419-0.212
			c0.006,0.098,0.006,0.185,0,0.268c-0.006,0.089-0.034,0.2-0.075,0.336l-0.083,0.274c-0.083,0.262-0.117,0.453-0.11,0.589
			c0.015,0.228,0.132,0.392,0.345,0.509C17.909,79.457,18.073,79.478,18.211,79.408L18.211,79.408z"/>
		<path fill="#FEFEFD" d="M21.166,74.184l0.802,0.487l-0.293,0.521c-0.296,0.521-0.591,0.817-0.9,0.885
			c-0.198,0.047-0.425-0.006-0.678-0.166l-2.538-1.542l-0.349,0.577l-0.768-0.466l0.349-0.577l-1.15-0.7l0.651-1.063l1.153,0.7
			l0.404-0.672l0.768,0.466l-0.404,0.672l2.174,1.325c0.17,0.102,0.287,0.143,0.355,0.13c0.068-0.021,0.172-0.139,0.302-0.357
			c0.021-0.034,0.041-0.068,0.062-0.102c0.021-0.034,0.041-0.077,0.062-0.111V74.184z"/>
		<path fill="#FEFEFD" d="M17.607,69.343l0.959,0.651l-0.719,1.057L16.886,70.4L17.607,69.343z M19.047,70.317l3.99,2.708
			l-0.719,1.057l-3.993-2.709L19.047,70.317z"/>
		<path fill="#FEFEFD" d="M22.791,66.396c0.651,0,1.255,0.212,1.797,0.645c0.555,0.438,0.904,0.974,1.049,1.604
			c0.145,0.632-0.041,1.27-0.555,1.92s-1.098,0.98-1.742,0.987c-0.644,0.007-1.249-0.206-1.803-0.644
			c-0.549-0.432-0.892-0.966-1.042-1.604s0.034-1.282,0.549-1.927C21.557,66.725,22.14,66.402,22.791,66.396z M21.878,68.042
			c-0.226,0.287-0.302,0.589-0.219,0.911c0.083,0.317,0.309,0.625,0.693,0.927c0.376,0.3,0.734,0.451,1.062,0.459
			c0.33,0,0.61-0.139,0.838-0.426c0.226-0.289,0.302-0.591,0.219-0.912c-0.083-0.315-0.315-0.624-0.693-0.925
			c-0.376-0.302-0.734-0.453-1.062-0.459C22.386,67.608,22.112,67.752,21.878,68.042z"/>
		<path fill="#FEFEFD" d="M25.719,63.694c-0.296,0.308-0.373,0.644-0.221,1.008c0.083,0.191,0.228,0.389,0.44,0.602l1.872,1.818
			l-0.878,0.904l-3.457-3.346l0.844-0.87l0.509,0.485c-0.064-0.287-0.089-0.521-0.064-0.706c0.042-0.321,0.2-0.623,0.48-0.91
			c0.351-0.357,0.728-0.564,1.132-0.604c0.41-0.049,0.83,0.145,1.261,0.562l2.331,2.263l-0.897,0.925l-2.106-2.042
			c-0.185-0.179-0.342-0.29-0.493-0.336c-0.268-0.083-0.515,0-0.762,0.247H25.719z"/>
		<path fill="#FEFEFD" d="M33.829,60.429c0.255-0.191,0.44-0.383,0.555-0.562c0.221-0.336,0.221-0.651,0-0.946
			c-0.13-0.172-0.309-0.247-0.527-0.226c-0.219,0.019-0.515,0.124-0.892,0.293l-0.644,0.296c-0.632,0.287-1.104,0.438-1.419,0.453
			c-0.536,0.027-0.995-0.213-1.378-0.721c-0.357-0.466-0.481-0.98-0.379-1.542c0.104-0.564,0.481-1.098,1.14-1.598
			c0.546-0.419,1.123-0.631,1.727-0.631s1.131,0.262,1.57,0.795l-1.042,0.795c-0.253-0.296-0.562-0.419-0.912-0.357
			c-0.232,0.042-0.479,0.16-0.726,0.351c-0.281,0.212-0.459,0.438-0.542,0.678c-0.083,0.241-0.04,0.459,0.111,0.666
			c0.143,0.185,0.328,0.259,0.562,0.226c0.151-0.021,0.432-0.117,0.836-0.302l1.057-0.466c0.466-0.206,0.857-0.302,1.172-0.302
			c0.493,0.006,0.919,0.24,1.276,0.706c0.362,0.474,0.479,1.008,0.355,1.597c-0.124,0.591-0.515,1.138-1.178,1.64
			c-0.679,0.515-1.323,0.768-1.948,0.753c-0.624-0.013-1.138-0.287-1.549-0.829l1.034-0.787c0.213,0.213,0.413,0.342,0.598,0.383
			c0.336,0.083,0.719-0.041,1.145-0.37V60.429z"/>
		<path fill="#FEFEFD" d="M39.878,55.844c0.124,0.259,0.143,0.589,0.075,0.972c-0.111,0.617-0.472,1.119-1.11,1.51
			c-0.521,0.321-1.091,0.438-1.695,0.342c-0.602-0.089-1.144-0.515-1.61-1.276c-0.438-0.712-0.589-1.363-0.466-1.967
			c0.13-0.604,0.479-1.076,1.055-1.434c0.343-0.213,0.687-0.336,1.042-0.376c0.351-0.041,0.706,0.021,1.048,0.191
			c0.309,0.145,0.591,0.364,0.838,0.659c0.142,0.17,0.321,0.438,0.534,0.795l-2.812,1.727c0.268,0.404,0.577,0.61,0.919,0.632
			c0.213,0.013,0.419-0.049,0.632-0.172c0.219-0.138,0.364-0.308,0.425-0.521c0.034-0.117,0.041-0.247,0.028-0.404l1.097-0.672
			V55.844z M38.041,55.24c-0.194-0.274-0.413-0.438-0.66-0.487c-0.247-0.055-0.48-0.006-0.712,0.13
			c-0.247,0.151-0.391,0.351-0.432,0.591c-0.042,0.238,0,0.506,0.13,0.793L38.041,55.24z"/>
		<path fill="#FEFEFD" d="M43.606,52.098l-1.159,0.57c-0.102-0.151-0.225-0.268-0.376-0.357c-0.212-0.108-0.453-0.102-0.719,0.028
			c-0.385,0.185-0.549,0.508-0.502,0.953c0.028,0.24,0.124,0.521,0.289,0.857c0.158,0.317,0.321,0.555,0.487,0.715
			c0.315,0.293,0.657,0.349,1.027,0.164c0.268-0.13,0.419-0.295,0.459-0.494c0.04-0.2,0.015-0.419-0.075-0.659l1.151-0.568
			c0.145,0.355,0.179,0.74,0.11,1.159c-0.11,0.672-0.515,1.178-1.208,1.521c-0.691,0.342-1.308,0.391-1.835,0.138
			c-0.536-0.253-0.961-0.706-1.291-1.366c-0.37-0.74-0.472-1.412-0.315-2.001c0.158-0.589,0.555-1.042,1.193-1.357
			c0.542-0.268,1.048-0.364,1.508-0.295c0.468,0.074,0.885,0.404,1.249,0.987L43.606,52.098z"/>
		<path fill="#FEFEFD" d="M48.222,52.887c0,0-0.021,0.068-0.034,0.157c-0.021,0.089-0.049,0.166-0.089,0.241
			c-0.124,0.234-0.262,0.419-0.404,0.542c-0.151,0.124-0.344,0.232-0.57,0.321c-0.666,0.255-1.206,0.185-1.625-0.204
			c-0.234-0.213-0.447-0.583-0.638-1.098l-1.027-2.716l1.206-0.459l1.029,2.716c0.096,0.253,0.198,0.438,0.309,0.542
			c0.191,0.185,0.444,0.219,0.759,0.102c0.406-0.151,0.619-0.419,0.645-0.802c0.015-0.207-0.041-0.453-0.149-0.74l-0.934-2.457
			l1.193-0.451l1.708,4.511l-1.146,0.432l-0.238-0.638H48.222z"/>
		<path fill="#FEFEFD" d="M51.904,48.623c-0.487,0.138-0.768,0.392-0.844,0.762c-0.041,0.206-0.007,0.493,0.098,0.863l0.636,2.214
			l-1.219,0.351l-1.331-4.636l1.159-0.328l0.234,0.808c0.096-0.364,0.198-0.623,0.308-0.774c0.17-0.253,0.438-0.432,0.802-0.542
			c0.02,0,0.041-0.013,0.056-0.013c0.013,0,0.047-0.015,0.102-0.021l0.357,1.242c-0.083,0.013-0.151,0.025-0.213,0.041
			C51.987,48.602,51.938,48.616,51.904,48.623z"/>
		<path fill="#FEFEFD" d="M53.631,45.237l0.262,1.129l-1.249,0.289l-0.26-1.131L53.631,45.237z M54.022,46.93l1.077,4.703
			l-1.249,0.289l-1.077-4.705L54.022,46.93z"/>
		<path fill="#FEFEFD" d="M58.163,50.137l0.166,0.927l-0.585,0.124c-0.583,0.123-1,0.096-1.252-0.096
			c-0.166-0.117-0.274-0.324-0.324-0.625l-0.515-2.92l-0.664,0.117l-0.159-0.885l0.666-0.117l-0.232-1.323l1.228-0.219l0.231,1.323
			l0.768-0.138l0.157,0.885l-0.768,0.138l0.446,2.51c0.034,0.191,0.083,0.308,0.136,0.349c0.056,0.041,0.213,0.034,0.468-0.006
			c0.04,0,0.074-0.015,0.115-0.021c0.042-0.006,0.083-0.021,0.124-0.027L58.163,50.137z"/>
		<path fill="#FEFEFD" d="M60.756,49.458l0.63-3.639l1.338-0.138l-1.166,4.89c-0.225,0.938-0.419,1.527-0.583,1.768
			s-0.521,0.385-1.076,0.44c-0.111,0.013-0.2,0.019-0.268,0.025c-0.068,0-0.172,0.015-0.309,0.015l-0.102-1.002h0.158
			c0.123-0.013,0.24-0.028,0.349-0.055c0.111-0.026,0.2-0.068,0.274-0.13c0.068-0.055,0.124-0.17,0.172-0.336
			c0.047-0.164,0.062-0.266,0.047-0.302l-2.27-4.826l1.393-0.145l1.404,3.435H60.756z"/>
		<path fill="#FEFEFD" d="M67.426,50.426l-1.268-0.068l0.364-6.515l1.98,0.11l0.899,5.183l1.459-5.053l1.955,0.11l-0.364,6.513
			l-1.268-0.068l0.247-4.403c0.006-0.124,0.021-0.302,0.034-0.534c0.015-0.228,0.028-0.404,0.034-0.528l-1.542,5.396l-1.323-0.076
			l-0.919-5.532c-0.006,0.123-0.015,0.3-0.028,0.527c-0.006,0.226-0.021,0.404-0.027,0.534l-0.247,4.403H67.426z"/>
		<path fill="#FEFEFD" d="M74.271,46.677c0.398-0.364,1-0.475,1.802-0.336c0.521,0.087,0.968,0.272,1.331,0.547
			c0.37,0.274,0.5,0.7,0.404,1.276l-0.376,2.18c-0.028,0.151-0.055,0.336-0.089,0.549c-0.021,0.164-0.015,0.281,0.013,0.342
			c0.028,0.068,0.083,0.124,0.157,0.179l-0.034,0.185l-1.351-0.232c-0.019-0.104-0.034-0.2-0.034-0.283c0-0.089,0-0.185,0.015-0.293
			c-0.207,0.157-0.426,0.281-0.672,0.37c-0.295,0.108-0.61,0.13-0.946,0.074c-0.432-0.074-0.762-0.259-1.002-0.555
			c-0.24-0.294-0.315-0.666-0.24-1.117c0.104-0.583,0.397-0.968,0.891-1.153c0.274-0.102,0.653-0.136,1.146-0.117l0.432,0.021
			c0.232,0.013,0.404,0,0.515-0.028c0.191-0.049,0.3-0.145,0.328-0.309c0.034-0.191-0.013-0.342-0.13-0.438
			c-0.117-0.096-0.314-0.172-0.576-0.213c-0.293-0.049-0.513-0.015-0.657,0.109c-0.104,0.089-0.191,0.228-0.247,0.406l-1.2-0.207
			c0.096-0.413,0.274-0.734,0.527-0.968L74.271,46.677z M74.619,50.18c0.103,0.117,0.234,0.185,0.404,0.219
			c0.268,0.049,0.527,0.007,0.783-0.11c0.253-0.115,0.417-0.383,0.5-0.795l0.083-0.459c-0.089,0.036-0.172,0.062-0.262,0.083
			c-0.081,0.015-0.198,0.027-0.342,0.027h-0.288c-0.268,0-0.468,0.028-0.591,0.075c-0.21,0.083-0.336,0.24-0.376,0.48
			c-0.034,0.213,0,0.376,0.102,0.487L74.619,50.18z"/>
		<path fill="#FEFEFD" d="M81.319,48.589c-0.413-0.111-0.742-0.015-0.996,0.295c-0.13,0.164-0.232,0.389-0.315,0.679l-0.693,2.516
			l-1.212-0.33l1.274-4.641l1.174,0.321l-0.187,0.678c0.221-0.198,0.419-0.328,0.585-0.397c0.3-0.117,0.645-0.124,1.027-0.02
			c0.48,0.13,0.836,0.362,1.076,0.698s0.274,0.795,0.117,1.378l-0.857,3.135l-1.249-0.345l0.776-2.831
			c0.068-0.247,0.089-0.438,0.053-0.589c-0.053-0.274-0.247-0.453-0.583-0.548H81.319z"/>
		<path fill="#FEFEFD" d="M84.912,49.246c0.459-0.281,1.076-0.274,1.831,0.015c0.494,0.185,0.891,0.453,1.2,0.795
			s0.355,0.781,0.151,1.33l-0.789,2.065c-0.055,0.143-0.117,0.315-0.191,0.521c-0.049,0.158-0.07,0.272-0.049,0.343
			c0.021,0.068,0.055,0.136,0.124,0.204l-0.068,0.172l-1.282-0.487c0-0.102,0-0.198,0.021-0.287
			c0.013-0.083,0.041-0.179,0.068-0.289c-0.234,0.117-0.475,0.193-0.734,0.234c-0.309,0.049-0.623,0.013-0.946-0.11
			c-0.404-0.158-0.7-0.398-0.879-0.734c-0.176-0.336-0.185-0.713-0.019-1.145c0.213-0.555,0.577-0.87,1.098-0.959
			c0.287-0.049,0.664-0.015,1.144,0.102l0.419,0.102c0.226,0.055,0.398,0.083,0.506,0.077c0.2-0.006,0.323-0.089,0.376-0.241
			c0.07-0.185,0.056-0.336-0.047-0.453c-0.102-0.117-0.274-0.226-0.521-0.321c-0.281-0.104-0.5-0.111-0.672-0.021
			c-0.124,0.068-0.226,0.185-0.323,0.351l-1.138-0.434c0.179-0.383,0.413-0.664,0.7-0.842L84.912,49.246z M84.582,52.743
			c0.076,0.132,0.191,0.234,0.357,0.289c0.253,0.096,0.512,0.108,0.787,0.041c0.268-0.068,0.487-0.293,0.645-0.685l0.166-0.438
			c-0.089,0.019-0.185,0.025-0.268,0.025s-0.198-0.013-0.342-0.04l-0.281-0.047c-0.268-0.049-0.466-0.064-0.598-0.042
			c-0.226,0.042-0.376,0.172-0.466,0.397C84.507,52.443,84.507,52.613,84.582,52.743L84.582,52.743z"/>
		<path fill="#FEFEFD" d="M88.544,56.31c0.07,0.164,0.247,0.314,0.536,0.459c0.404,0.198,0.747,0.198,1.021,0
			c0.179-0.13,0.37-0.398,0.57-0.817l0.136-0.274c-0.198,0.13-0.383,0.213-0.555,0.24c-0.309,0.062-0.645,0-1.002-0.179
			c-0.555-0.274-0.897-0.691-1.042-1.246c-0.136-0.558-0.041-1.168,0.289-1.832c0.321-0.645,0.747-1.104,1.283-1.378
			c0.534-0.281,1.095-0.274,1.687,0.019c0.219,0.11,0.389,0.234,0.513,0.385c0.221,0.247,0.336,0.57,0.357,0.959l0.308-0.624
			l1.098,0.549l-2.036,4.101c-0.274,0.555-0.576,0.931-0.906,1.116c-0.562,0.33-1.304,0.262-2.214-0.191
			c-0.555-0.274-0.946-0.604-1.193-0.995c-0.24-0.389-0.274-0.808-0.096-1.255l1.228,0.61c-0.034,0.151-0.028,0.268,0.013,0.364
			L88.544,56.31z M89.463,53.985c-0.028,0.438,0.159,0.761,0.555,0.953c0.268,0.13,0.536,0.145,0.816,0.034
			c0.281-0.108,0.527-0.383,0.747-0.814c0.207-0.413,0.274-0.762,0.207-1.063c-0.068-0.302-0.247-0.521-0.534-0.666
			c-0.397-0.198-0.761-0.145-1.097,0.151c-0.179,0.158-0.336,0.385-0.481,0.672c-0.123,0.253-0.191,0.493-0.204,0.734H89.463z"/>
		<path fill="#FEFEFD" d="M96.684,58.345c-0.179,0.228-0.459,0.392-0.844,0.502c-0.596,0.177-1.212,0.075-1.844-0.323
			c-0.521-0.321-0.876-0.78-1.061-1.363c-0.194-0.583-0.049-1.255,0.423-2.01c0.44-0.706,0.961-1.138,1.557-1.295
			c0.598-0.151,1.18-0.055,1.755,0.309c0.344,0.212,0.61,0.465,0.804,0.768c0.191,0.293,0.293,0.638,0.3,1.027
			c0.009,0.345-0.062,0.687-0.21,1.042c-0.089,0.207-0.247,0.481-0.474,0.83l-2.797-1.748c-0.241,0.419-0.296,0.789-0.151,1.104
			c0.083,0.194,0.226,0.357,0.438,0.487c0.219,0.138,0.44,0.185,0.653,0.145c0.115-0.021,0.238-0.074,0.376-0.157l1.089,0.678
			L96.684,58.345z M96.41,56.433c0.158-0.295,0.207-0.563,0.145-0.802c-0.062-0.24-0.206-0.432-0.44-0.576
			c-0.247-0.158-0.487-0.2-0.719-0.124c-0.234,0.068-0.453,0.226-0.651,0.472l1.666,1.036V56.433z"/>
		<path fill="#FEFEFD" d="M100.813,58.838c0.062-0.247-0.028-0.466-0.268-0.664c-0.281-0.228-0.542-0.289-0.783-0.185
			c-0.136,0.062-0.287,0.191-0.451,0.398l-1.819,2.261l-0.993-0.802l3.016-3.75l0.953,0.768l-0.438,0.548
			c0.281-0.096,0.508-0.145,0.678-0.138c0.309,0,0.617,0.132,0.919,0.379c0.29,0.232,0.466,0.479,0.542,0.747
			c0.047,0.234,0.034,0.466-0.041,0.712c0.309-0.117,0.596-0.151,0.87-0.102c0.287,0.062,0.555,0.185,0.802,0.391
			c0.164,0.13,0.302,0.293,0.413,0.487c0.108,0.191,0.164,0.423,0.164,0.691c0,0.219-0.055,0.432-0.172,0.651
			c-0.075,0.145-0.213,0.336-0.411,0.583l-1.914,2.367l-1.006-0.81l1.918-2.393c0.117-0.145,0.185-0.281,0.213-0.404
			c0.055-0.247-0.041-0.459-0.274-0.651c-0.274-0.219-0.549-0.255-0.836-0.117c-0.151,0.074-0.287,0.198-0.425,0.37l-1.797,2.242
			l-0.987-0.795l1.797-2.242c0.179-0.226,0.287-0.404,0.321-0.542H100.813z"/>
		<path fill="#FEFEFD" d="M106.406,66.821c-0.226,0.179-0.542,0.274-0.932,0.287c-0.625,0.034-1.193-0.213-1.714-0.747
			c-0.432-0.44-0.666-0.961-0.712-1.578c-0.049-0.61,0.247-1.228,0.883-1.851c0.598-0.583,1.202-0.878,1.818-0.891
			c0.617-0.006,1.157,0.226,1.631,0.706c0.281,0.287,0.481,0.596,0.596,0.932c0.117,0.336,0.138,0.693,0.049,1.07
			c-0.077,0.336-0.226,0.659-0.453,0.959c-0.136,0.179-0.355,0.413-0.651,0.7l-2.31-2.359c-0.336,0.351-0.468,0.7-0.406,1.036
			c0.034,0.207,0.138,0.398,0.308,0.577c0.185,0.185,0.385,0.281,0.604,0.295c0.117,0.006,0.253-0.015,0.404-0.062l0.9,0.919
			L106.406,66.821z M106.585,64.9c0.226-0.247,0.336-0.5,0.33-0.747c-0.008-0.247-0.104-0.474-0.289-0.666
			c-0.204-0.207-0.425-0.309-0.672-0.295c-0.238,0.015-0.493,0.117-0.74,0.302l1.372,1.399V64.9z"/>
		<path fill="#FEFEFD" d="M110.307,67.657c-0.266-0.336-0.596-0.447-0.972-0.343c-0.2,0.056-0.419,0.179-0.653,0.364l-2.029,1.638
			l-0.789-0.98l3.746-3.022l0.759,0.944l-0.546,0.44c0.293-0.027,0.527-0.021,0.706,0.019c0.315,0.083,0.596,0.274,0.849,0.583
			c0.317,0.391,0.468,0.789,0.468,1.202c0,0.411-0.24,0.808-0.714,1.185l-2.523,2.044l-0.808-1.008l2.282-1.844
			c0.2-0.157,0.33-0.309,0.392-0.447c0.117-0.253,0.062-0.513-0.158-0.78L110.307,67.657z"/>
		<path fill="#FEFEFD" d="M111.137,73.854l-0.774,0.536l-0.355-0.481c-0.357-0.48-0.502-0.87-0.44-1.178
			c0.042-0.2,0.185-0.385,0.432-0.557l2.448-1.678l-0.383-0.555l0.74-0.508l0.383,0.555l1.112-0.762l0.706,1.03l-1.112,0.761
			l0.447,0.645l-0.74,0.506l-0.447-0.645l-2.097,1.446c-0.166,0.11-0.247,0.206-0.262,0.274c-0.013,0.07,0.056,0.206,0.2,0.419
			c0.019,0.034,0.047,0.062,0.068,0.096c0.028,0.034,0.049,0.068,0.075,0.102V73.854z"/>
		<path fill="#FEFEFD" d="M113.955,78.648c0.145,0.287,0.296,0.5,0.453,0.645c0.296,0.274,0.604,0.328,0.934,0.164
			c0.191-0.096,0.293-0.26,0.314-0.481c0.013-0.219-0.027-0.527-0.138-0.932l-0.176-0.685c-0.172-0.672-0.241-1.166-0.2-1.483
			c0.068-0.527,0.385-0.938,0.953-1.233c0.521-0.268,1.048-0.302,1.584-0.096c0.534,0.198,0.993,0.666,1.372,1.397
			c0.315,0.61,0.417,1.214,0.315,1.818c-0.102,0.596-0.459,1.062-1.063,1.406l-0.596-1.166c0.336-0.2,0.506-0.48,0.506-0.838
			c0-0.24-0.074-0.5-0.219-0.78c-0.157-0.317-0.349-0.528-0.576-0.651c-0.219-0.124-0.445-0.124-0.672-0.009
			c-0.204,0.111-0.314,0.281-0.321,0.515c-0.006,0.151,0.04,0.447,0.151,0.878l0.274,1.123c0.123,0.496,0.151,0.891,0.089,1.208
			c-0.096,0.487-0.398,0.864-0.919,1.132c-0.527,0.274-1.076,0.293-1.631,0.068c-0.557-0.225-1.029-0.706-1.406-1.446
			c-0.392-0.755-0.521-1.44-0.398-2.05c0.124-0.61,0.487-1.07,1.089-1.378l0.598,1.159c-0.247,0.17-0.404,0.349-0.48,0.521
			C113.655,77.776,113.708,78.174,113.955,78.648L113.955,78.648z"/>
		<path fill="#FEFEFD" d="M116.473,83.447l3.673-0.37l0.487,1.249l-5.018,0.191c-0.967,0.034-1.591,0.006-1.859-0.083
			c-0.274-0.096-0.508-0.397-0.712-0.918c-0.042-0.102-0.077-0.185-0.096-0.253c-0.021-0.062-0.055-0.157-0.098-0.287l0.94-0.37
			l0.049,0.151c0.041,0.115,0.089,0.225,0.143,0.321c0.055,0.096,0.124,0.172,0.2,0.228c0.074,0.046,0.198,0.074,0.37,0.074
			c0.17,0,0.274-0.013,0.302-0.034l4.045-3.484l0.513,1.304l-2.927,2.276L116.473,83.447z"/>
		<path fill="#FEFEFD" d="M121.642,88.516c-0.13,0.432-0.466,0.753-1.021,0.972l-0.351-1.212c0.151-0.062,0.262-0.145,0.33-0.24
			c0.124-0.179,0.145-0.432,0.049-0.755c-0.077-0.26-0.172-0.438-0.29-0.528c-0.115-0.089-0.225-0.117-0.336-0.083
			c-0.136,0.042-0.219,0.132-0.247,0.268c-0.034,0.139-0.02,0.589,0.027,1.357c0.028,0.515-0.04,0.927-0.198,1.235
			c-0.166,0.309-0.419,0.506-0.768,0.611c-0.459,0.129-0.885,0.068-1.276-0.185c-0.391-0.262-0.685-0.743-0.891-1.461
			c-0.213-0.728-0.213-1.31,0-1.749c0.206-0.438,0.549-0.721,1.021-0.857l0.357,1.227c-0.207,0.089-0.343,0.185-0.411,0.302
			c-0.117,0.198-0.117,0.5,0,0.904c0.068,0.24,0.157,0.419,0.266,0.536c0.111,0.117,0.241,0.157,0.379,0.117
			c0.136-0.042,0.226-0.123,0.259-0.261c0.041-0.136,0.041-0.589,0-1.372c-0.021-0.562,0.034-0.98,0.172-1.247
			c0.13-0.274,0.376-0.459,0.74-0.563c0.425-0.123,0.842-0.062,1.249,0.185c0.404,0.247,0.691,0.672,0.87,1.283
			c0.164,0.576,0.185,1.083,0.062,1.517H121.642z"/>
		<path fill="#FEFEFD" d="M118.906,93.252l-0.925,0.191l-0.145-0.583c-0.145-0.574-0.124-1,0.049-1.261
			c0.108-0.17,0.315-0.281,0.61-0.343l2.906-0.61l-0.136-0.657l0.878-0.185l0.136,0.657l1.316-0.274l0.259,1.221l-1.314,0.274
			l0.164,0.768l-0.878,0.185l-0.164-0.768l-2.497,0.527c-0.191,0.041-0.309,0.089-0.343,0.151s-0.027,0.213,0.021,0.466
			c0.006,0.034,0.013,0.077,0.027,0.117C118.879,93.169,118.892,93.212,118.906,93.252z"/>
		<path fill="#FEFEFD" d="M120.112,97.948c-0.287,0-0.596-0.102-0.925-0.328c-0.521-0.351-0.83-0.885-0.932-1.625
			c-0.083-0.61,0.041-1.174,0.37-1.687c0.33-0.521,0.932-0.838,1.816-0.955c0.83-0.108,1.489,0.015,1.989,0.373
			c0.5,0.355,0.795,0.876,0.885,1.542c0.055,0.397,0.028,0.768-0.077,1.104c-0.102,0.336-0.308,0.63-0.595,0.885
			c-0.262,0.226-0.57,0.39-0.94,0.5c-0.213,0.062-0.527,0.117-0.938,0.164l-0.447-3.27c-0.48,0.081-0.795,0.281-0.946,0.589
			c-0.096,0.191-0.13,0.404-0.096,0.645c0.034,0.259,0.138,0.459,0.302,0.596c0.09,0.076,0.213,0.138,0.364,0.185l0.17,1.276V97.948
			z M121.41,96.517c0.328-0.062,0.562-0.2,0.712-0.406c0.151-0.205,0.198-0.438,0.164-0.707c-0.041-0.287-0.158-0.5-0.364-0.636
			c-0.204-0.138-0.459-0.2-0.774-0.2l0.262,1.939V96.517z"/>
		<path fill="#FEFEFD" d="M122.369,101.445c0.234-0.108,0.342-0.321,0.336-0.629c0-0.357-0.124-0.598-0.364-0.721
			c-0.136-0.068-0.33-0.096-0.596-0.089l-2.901,0.049l-0.021-1.276l4.813-0.074l0.021,1.227l-0.706,0.013
			c0.253,0.151,0.432,0.296,0.542,0.434c0.191,0.238,0.293,0.555,0.3,0.944c0,0.372-0.068,0.666-0.226,0.899
			c-0.145,0.185-0.336,0.328-0.576,0.425c0.289,0.158,0.493,0.362,0.632,0.602c0.136,0.262,0.206,0.549,0.212,0.864
			c0,0.212-0.034,0.425-0.117,0.632c-0.083,0.206-0.219,0.397-0.426,0.57c-0.164,0.136-0.37,0.232-0.617,0.281
			c-0.164,0.034-0.397,0.047-0.712,0.055l-3.037,0.041l-0.021-1.289l3.071-0.049c0.185,0,0.336-0.034,0.453-0.096
			c0.219-0.117,0.33-0.321,0.33-0.623c0-0.351-0.151-0.583-0.447-0.713c-0.157-0.07-0.336-0.098-0.555-0.098l-2.874,0.049
			l-0.019-1.268l2.872-0.049c0.289,0,0.493-0.034,0.625-0.096L122.369,101.445z"/>
	</g>
	<g>
		<path fill="#FEFEFD" d="M50.177,157.498c-0.742,0.317-1.544,0.323-2.414,0.015c-1.076-0.378-1.804-1.022-2.174-1.927
			c-0.37-0.912-0.342-1.968,0.074-3.182c0.459-1.311,1.166-2.187,2.112-2.654c0.823-0.404,1.708-0.438,2.654-0.108
			c1.261,0.444,2.036,1.178,2.325,2.207c0.158,0.577,0.164,1.104,0.028,1.576l-1.563-0.549c0.025-0.397-0.015-0.712-0.104-0.952
			c-0.17-0.426-0.534-0.734-1.089-0.932c-0.57-0.2-1.098-0.13-1.591,0.212c-0.487,0.343-0.885,0.932-1.18,1.776
			c-0.293,0.836-0.343,1.529-0.143,2.069c0.198,0.543,0.568,0.906,1.104,1.092c0.546,0.191,1.027,0.157,1.44-0.096
			c0.225-0.139,0.459-0.377,0.697-0.728l1.551,0.542c-0.425,0.768-1.002,1.308-1.736,1.625L50.177,157.498z"/>
		<path fill="#FEFEFD" d="M57.951,158.115c-0.108,0.336-0.355,0.645-0.747,0.934c-0.604,0.459-1.351,0.596-2.235,0.417
			c-0.734-0.149-1.33-0.513-1.789-1.104c-0.468-0.582-0.583-1.403-0.372-2.467c0.207-0.995,0.61-1.708,1.221-2.134
			c0.611-0.425,1.323-0.562,2.127-0.397c0.479,0.096,0.892,0.274,1.234,0.536c0.349,0.26,0.604,0.602,0.774,1.042
			c0.158,0.383,0.219,0.809,0.2,1.274c-0.015,0.274-0.077,0.652-0.185,1.152l-3.937-0.802c-0.096,0.583,0,1.021,0.296,1.323
			c0.178,0.185,0.41,0.309,0.706,0.37c0.308,0.062,0.576,0.027,0.808-0.11c0.124-0.075,0.247-0.186,0.364-0.334l1.536,0.314V158.115
			z M56.819,156.052c0.056-0.404,0-0.728-0.178-0.98c-0.17-0.247-0.417-0.404-0.74-0.472c-0.349-0.07-0.636-0.016-0.876,0.163
			c-0.234,0.179-0.419,0.453-0.542,0.809l2.337,0.475V156.052z"/>
		<path fill="#FEFEFD" d="M62.483,155.833c-0.617-0.062-1.048,0.096-1.295,0.472c-0.145,0.213-0.234,0.556-0.281,1.023l-0.283,2.79
			l-1.536-0.157l0.598-5.836l1.453,0.15l-0.102,1.015c0.274-0.363,0.506-0.61,0.7-0.733c0.309-0.213,0.691-0.294,1.151-0.247
			c0.028,0,0.055,0,0.077,0.007c0.019,0,0.062,0.015,0.13,0.021l-0.158,1.563c-0.096-0.021-0.179-0.033-0.253-0.047
			c-0.077-0.015-0.138-0.021-0.179-0.021H62.483z"/>
		<path fill="#FEFEFD" d="M66.35,159.329l-0.027,1.145h-0.726c-0.727,0.015-1.214-0.123-1.474-0.41
			c-0.166-0.179-0.249-0.453-0.24-0.817l0.096-3.613l-0.817-0.02l0.028-1.091l0.816,0.021l0.041-1.64l1.517,0.042l-0.042,1.638
			l0.953,0.028l-0.028,1.091l-0.953-0.027l-0.081,3.099c0,0.24,0.019,0.392,0.081,0.453s0.247,0.096,0.555,0.102
			c0.049,0,0.098,0,0.151,0C66.254,159.329,66.303,159.329,66.35,159.329z"/>
		<path fill="#FEFEFD" d="M68.777,152.363l0.049,1.413l-1.557,0.055l-0.047-1.414L68.777,152.363z M68.853,154.476l0.213,5.862
			l-1.557,0.055l-0.212-5.863L68.853,154.476z"/>
		<path fill="#FEFEFD" d="M72.714,152.02l0.123,1.242c-0.089,0-0.234,0-0.432,0.021c-0.2,0.013-0.336,0.075-0.404,0.177
			c-0.07,0.104-0.098,0.213-0.083,0.323l0.047,0.493l1.002-0.102l0.11,1.076l-1.001,0.102l0.466,4.712l-1.521,0.15l-0.468-4.711
			l-0.849,0.083l-0.111-1.076l0.836-0.083l-0.034-0.376c-0.062-0.626,0-1.063,0.185-1.323c0.185-0.372,0.707-0.598,1.551-0.688
			c0.096-0.006,0.185-0.013,0.259-0.021c0.083,0,0.185,0,0.324-0.007V152.02z"/>
		<path fill="#FEFEFD" d="M74.887,151.657l0.232,1.397l-1.536,0.256l-0.226-1.399l1.536-0.254H74.887z M75.23,153.742l0.953,5.785
			l-1.536,0.255l-0.953-5.787L75.23,153.742z"/>
		<path fill="#FEFEFD" d="M82.408,156.305c0.049,0.352-0.041,0.734-0.26,1.159c-0.344,0.679-0.953,1.132-1.831,1.351
			c-0.721,0.186-1.418,0.117-2.091-0.206c-0.672-0.321-1.146-1.006-1.412-2.057c-0.255-0.98-0.2-1.802,0.164-2.454
			c0.364-0.651,0.947-1.083,1.742-1.289c0.472-0.124,0.918-0.145,1.344-0.063c0.425,0.083,0.808,0.281,1.15,0.598
			c0.309,0.281,0.555,0.63,0.734,1.062c0.104,0.256,0.219,0.626,0.336,1.112l-3.888,1c0.166,0.563,0.446,0.919,0.844,1.063
			c0.24,0.089,0.506,0.096,0.795,0.021c0.309-0.077,0.534-0.228,0.679-0.453c0.083-0.123,0.136-0.274,0.178-0.46l1.515-0.391
			V156.305z M80.49,154.948c-0.124-0.386-0.323-0.651-0.591-0.802c-0.266-0.151-0.555-0.186-0.87-0.104
			c-0.342,0.089-0.583,0.268-0.721,0.529c-0.136,0.266-0.177,0.589-0.13,0.966L80.49,154.948L80.49,154.948z"/>
		<path fill="#FEFEFD" d="M86.432,148.146l2.908,7.371l-1.385,0.547l-0.302-0.753c-0.075,0.404-0.213,0.734-0.417,0.98
			c-0.207,0.247-0.502,0.453-0.885,0.604c-0.638,0.253-1.276,0.204-1.914-0.139c-0.636-0.342-1.117-0.919-1.44-1.727
			c-0.37-0.934-0.444-1.749-0.225-2.455s0.685-1.201,1.406-1.482c0.33-0.13,0.651-0.17,0.966-0.13
			c0.317,0.041,0.604,0.164,0.865,0.357l-1.029-2.605l1.446-0.569H86.432z M84.438,154.338c0.2,0.499,0.459,0.863,0.776,1.091
			c0.315,0.226,0.679,0.26,1.083,0.102c0.404-0.157,0.651-0.432,0.74-0.816c0.089-0.383,0.043-0.814-0.145-1.289
			c-0.259-0.663-0.617-1.076-1.067-1.233c-0.274-0.089-0.549-0.083-0.823,0.027c-0.419,0.164-0.659,0.447-0.734,0.836
			c-0.068,0.392-0.015,0.823,0.17,1.289V154.338z"/>
	</g>
	<g>
		<path fill="#FEFEFD" d="M48.722,123.183c-0.302-0.364-0.733-0.543-1.295-0.543c-0.768,0-1.295,0.287-1.57,0.864
			c-0.16,0.329-0.255,0.856-0.283,1.578H43.12c0.042-1.098,0.24-1.982,0.598-2.655c0.672-1.282,1.872-1.927,3.592-1.927
			c1.357,0,2.442,0.377,3.25,1.132c0.802,0.755,1.206,1.755,1.206,2.997c0,0.952-0.281,1.795-0.849,2.537
			c-0.37,0.493-0.989,1.033-1.838,1.638l-1.015,0.721c-0.631,0.451-1.07,0.774-1.304,0.973c-0.232,0.199-0.432,0.432-0.589,0.699
			h5.615v2.229h-8.81c0.019-0.926,0.219-1.77,0.596-2.531c0.363-0.857,1.214-1.768,2.559-2.723c1.166-0.836,1.918-1.432,2.261-1.789
			c0.53-0.562,0.789-1.178,0.789-1.844c0-0.542-0.151-0.995-0.453-1.356H48.722z"/>
		<path fill="#FEFEFD" d="M60.365,124.696c-0.672,0.96-1.242,1.948-1.693,2.963c-0.364,0.796-0.688,1.776-0.975,2.927
			c-0.287,1.153-0.432,2.1-0.432,2.84h-2.626c0.076-2.304,0.835-4.705,2.269-7.193c0.925-1.542,1.708-2.618,2.331-3.229h-6.417
			l0.034-2.27h9.084v1.979c-0.376,0.37-0.904,1.036-1.576,1.989V124.696z"/>
		<path fill="#FEFEFD" d="M67.331,133.747c-1.638,0-2.791-0.574-3.448-1.721c-0.66-1.145-0.987-2.784-0.987-4.909
			s0.328-3.765,0.987-4.915c0.657-1.153,1.81-1.729,3.448-1.729c1.64,0,2.791,0.576,3.45,1.729c0.657,1.15,0.987,2.79,0.987,4.915
			s-0.33,3.758-0.987,4.909C70.121,133.173,68.97,133.747,67.331,133.747z M68.813,130.512c0.231-0.783,0.342-1.914,0.342-3.389
			c0-1.474-0.117-2.694-0.351-3.441c-0.232-0.746-0.725-1.118-1.474-1.118c-0.747,0-1.247,0.372-1.487,1.118
			c-0.24,0.747-0.364,1.894-0.364,3.441c0,1.551,0.124,2.612,0.364,3.395c0.24,0.781,0.74,1.173,1.487,1.173
			C68.079,131.69,68.579,131.299,68.813,130.512z"/>
		<path fill="#FEFEFD" d="M77.287,133.747c-1.638,0-2.791-0.574-3.448-1.721c-0.659-1.145-0.989-2.784-0.989-4.909
			s0.33-3.765,0.989-4.915c0.657-1.153,1.81-1.729,3.448-1.729c1.64,0,2.791,0.576,3.45,1.729c0.657,1.15,0.987,2.79,0.987,4.915
			s-0.33,3.758-0.987,4.909C80.077,133.173,78.926,133.747,77.287,133.747z M78.775,130.512c0.232-0.783,0.342-1.914,0.342-3.389
			c0-1.474-0.117-2.694-0.351-3.441c-0.231-0.746-0.725-1.118-1.474-1.118c-0.747,0-1.247,0.372-1.487,1.118
			c-0.24,0.747-0.364,1.894-0.364,3.441c0,1.551,0.124,2.612,0.364,3.395c0.24,0.781,0.74,1.173,1.487,1.173
			C78.042,131.69,78.542,131.299,78.775,130.512z"/>
		<path fill="#FEFEFD" d="M89.121,133.432h-2.59v-8.871h-3.024v-1.723c0.795-0.034,1.357-0.09,1.68-0.157
			c0.506-0.108,0.925-0.337,1.24-0.673c0.219-0.231,0.385-0.533,0.494-0.925c0.062-0.231,0.098-0.404,0.098-0.515h2.104V133.432
			L89.121,133.432z"/>
	</g>
	<g>
		<path fill="#FEFEFD" d="M242.276,65.085h27.165c6.611,0,15.318,0,19.83,2.729c4.93,2.935,8.812,8.282,8.812,15.633
			c0,7.968-4.19,13.946-11.115,16.779v0.213c9.235,1.884,14.261,8.81,14.261,18.039c0,11.011-7.869,21.503-22.756,21.503h-36.189
			V65.091L242.276,65.085z M252.232,97.285h19.938c11.321,0,15.941-4.094,15.941-11.958c0-10.388-7.336-11.849-15.941-11.849
			h-19.938V97.285z M252.232,131.581h24.973c8.598,0,14.055-5.247,14.055-13.425c0-9.758-7.863-12.487-16.263-12.487h-22.765v25.904
			V131.581z"/>
		<path fill="#FEFEFD" d="M326.694,102.564c0,31.463-25.499,56.963-56.97,56.963c-31.472,0-56.959-25.506-56.959-56.963
			s25.5-56.957,56.959-56.957C301.182,45.607,326.694,71.106,326.694,102.564L326.694,102.564z M269.731,36.918
			c-36.23,0-65.612,29.375-65.612,65.612c0,36.237,29.373,65.609,65.612,65.609c36.236,0,65.624-29.379,65.624-65.609
			S305.974,36.918,269.731,36.918z"/>
	</g>
	<g>
		<rect x="204.258" y="181.983" fill="#FEFEFD" width="130.959" height="8.605"/>
		<path fill="#FEFEFD" d="M331.118,172.508c0.164,0,0.315-0.006,0.46-0.015c0.13-0.007,0.266-0.041,0.376-0.087
			c0.117-0.056,0.207-0.133,0.269-0.229c0.068-0.108,0.096-0.24,0.096-0.425c0-0.151-0.027-0.281-0.09-0.364
			c-0.055-0.096-0.138-0.163-0.233-0.204c-0.096-0.055-0.191-0.089-0.321-0.11c-0.123-0.006-0.24-0.021-0.364-0.021h-0.939v1.455
			h0.74H331.118z M331.434,170.471c0.549,0,0.946,0.11,1.206,0.323c0.262,0.225,0.397,0.549,0.397,0.986
			c0,0.419-0.123,0.706-0.343,0.913c-0.24,0.185-0.521,0.302-0.869,0.342l1.308,2.01h-0.753l-1.249-1.969h-0.746v1.969h-0.721
			v-4.566h1.775L331.434,170.471z M328.211,174.071c0.151,0.41,0.377,0.768,0.672,1.069c0.281,0.294,0.624,0.534,1.027,0.707
			c0.386,0.17,0.823,0.246,1.271,0.246c0.444,0,0.882-0.076,1.268-0.246c0.391-0.173,0.728-0.413,1.027-0.707
			c0.282-0.302,0.515-0.659,0.672-1.069c0.172-0.404,0.255-0.851,0.255-1.316s-0.083-0.906-0.255-1.311
			c-0.157-0.41-0.39-0.753-0.672-1.055c-0.294-0.296-0.637-0.527-1.027-0.7c-0.386-0.163-0.809-0.253-1.268-0.253
			c-0.46,0-0.885,0.09-1.271,0.253c-0.397,0.173-0.74,0.404-1.027,0.7c-0.295,0.302-0.521,0.645-0.672,1.055
			c-0.166,0.404-0.246,0.838-0.246,1.311C327.965,173.227,328.045,173.667,328.211,174.071 M327.566,171.197
			c0.213-0.472,0.494-0.869,0.849-1.227c0.357-0.349,0.783-0.617,1.255-0.814c0.475-0.2,0.989-0.296,1.517-0.296
			s1.049,0.089,1.536,0.296c0.466,0.204,0.878,0.466,1.227,0.814c0.357,0.357,0.651,0.761,0.852,1.227
			c0.219,0.481,0.314,0.996,0.314,1.551c0,0.556-0.096,1.076-0.314,1.549c-0.2,0.486-0.494,0.891-0.852,1.248
			c-0.349,0.364-0.761,0.623-1.227,0.83c-0.487,0.191-0.987,0.287-1.536,0.287s-1.042-0.096-1.517-0.287
			c-0.479-0.198-0.897-0.466-1.255-0.83c-0.354-0.349-0.636-0.762-0.849-1.248c-0.219-0.473-0.309-0.987-0.309-1.549
			C327.258,172.185,327.348,171.672,327.566,171.197"/>
	</g>
	<g>
		<path fill="#FEFEFD" d="M220.123,8.066c-0.309-0.502-0.7-0.934-1.159-1.31c-0.466-0.376-0.987-0.672-1.576-0.878
			c-0.59-0.211-1.2-0.315-1.845-0.315c-1.172,0-2.167,0.228-2.981,0.679c-0.817,0.453-1.482,1.063-1.989,1.825
			c-0.508,0.761-0.878,1.631-1.112,2.605c-0.231,0.974-0.349,1.98-0.349,3.016c0,1.036,0.117,1.961,0.349,2.901
			c0.234,0.94,0.604,1.789,1.112,2.538c0.507,0.753,1.172,1.351,1.989,1.81c0.814,0.451,1.816,0.678,2.981,0.678
			c1.592,0,2.838-0.487,3.731-1.461c0.897-0.974,1.438-2.254,1.638-3.846h5.038c-0.13,1.48-0.472,2.818-1.027,4.012
			c-0.555,1.193-1.282,2.214-2.188,3.05c-0.904,0.844-1.967,1.48-3.18,1.927c-1.215,0.438-2.553,0.666-4.012,0.666
			c-1.816,0-3.441-0.317-4.896-0.946c-1.446-0.632-2.674-1.496-3.661-2.605c-0.995-1.104-1.757-2.408-2.29-3.895
			c-0.527-1.495-0.796-3.099-0.796-4.828c0-1.727,0.269-3.414,0.796-4.93c0.527-1.515,1.295-2.837,2.29-3.962
			c0.994-1.132,2.215-2.008,3.661-2.652c1.446-0.638,3.079-0.961,4.896-0.961c1.302,0,2.538,0.193,3.695,0.563
			c1.159,0.376,2.201,0.925,3.12,1.644c0.919,0.721,1.674,1.612,2.269,2.667c0.599,1.063,0.975,2.278,1.132,3.647h-5.038
			C220.631,9.108,220.431,8.56,220.123,8.066L220.123,8.066z"/>
		<path fill="#FEFEFD" d="M232.752,21.313c0.707,0.685,1.729,1.029,3.053,1.029c0.953,0,1.77-0.24,2.454-0.714
			c0.685-0.473,1.104-0.981,1.262-1.508h4.147c-0.664,2.057-1.679,3.531-3.05,4.409c-1.372,0.885-3.031,1.323-4.978,1.323
			c-1.353,0-2.565-0.212-3.649-0.644c-1.083-0.432-2.002-1.042-2.755-1.844c-0.755-0.795-1.331-1.749-1.742-2.852
			c-0.412-1.104-0.61-2.325-0.61-3.648c0-1.323,0.213-2.476,0.63-3.58c0.419-1.104,1.017-2.063,1.791-2.865
			c0.774-0.811,1.699-1.44,2.77-1.908c1.069-0.466,2.263-0.697,3.564-0.697c1.461,0,2.73,0.281,3.813,0.842s1.974,1.323,2.667,2.269
			c0.7,0.953,1.2,2.038,1.508,3.25c0.309,1.215,0.419,2.489,0.33,3.813h-12.37c0.07,1.527,0.453,2.631,1.159,3.318L232.752,21.313z
			 M238.074,12.297c-0.562-0.617-1.419-0.925-2.572-0.925c-0.755,0-1.378,0.13-1.871,0.383c-0.5,0.253-0.897,0.57-1.193,0.947
			c-0.302,0.376-0.508,0.774-0.632,1.193c-0.123,0.419-0.191,0.795-0.21,1.125h7.656C239.033,13.826,238.636,12.92,238.074,12.297
			L238.074,12.297z"/>
		<path fill="#FEFEFD" d="M250.559,8.279v3.182h0.068c0.222-0.536,0.523-1.023,0.899-1.476c0.377-0.451,0.809-0.842,1.296-1.157
			c0.487-0.323,1.008-0.57,1.563-0.749c0.555-0.179,1.125-0.266,1.721-0.266c0.308,0,0.652,0.053,1.029,0.164v4.375
			c-0.228-0.042-0.487-0.083-0.796-0.117c-0.309-0.034-0.61-0.049-0.897-0.049c-0.865,0-1.591,0.145-2.188,0.432
			c-0.596,0.289-1.076,0.681-1.44,1.18c-0.363,0.5-0.623,1.076-0.78,1.742c-0.157,0.664-0.234,1.385-0.234,2.152v7.727h-4.711V8.272
			h4.479L250.559,8.279z"/>
		<path fill="#FEFEFD" d="M269.737,8.279v3.146h-3.449v8.489c0,0.795,0.138,1.332,0.397,1.591c0.268,0.268,0.795,0.398,1.591,0.398
			c0.268,0,0.521-0.013,0.762-0.034c0.24-0.021,0.474-0.056,0.699-0.102v3.647c-0.397,0.068-0.844,0.108-1.329,0.13
			c-0.487,0.021-0.961,0.034-1.427,0.034c-0.728,0-1.419-0.047-2.072-0.151c-0.65-0.096-1.228-0.293-1.721-0.583
			c-0.5-0.287-0.891-0.7-1.178-1.228c-0.29-0.527-0.433-1.227-0.433-2.091v-10.12h-2.852V8.258h2.852V3.115h4.71v5.143h3.449V8.279z
			"/>
		<path fill="#FEFEFD" d="M272.479,5.625V1.745h4.711v3.879H272.479z M277.19,8.279v17.147h-4.711V8.279H277.19z"/>
		<path fill="#FEFEFD" d="M279.056,11.434V8.286h2.818v-1.33c0-1.523,0.472-2.778,1.425-3.746c0.955-0.972,2.387-1.459,4.313-1.459
			c0.419,0,0.845,0.013,1.261,0.047c0.42,0.034,0.83,0.062,1.228,0.083v3.518c-0.555-0.068-1.123-0.104-1.721-0.104
			c-0.638,0-1.098,0.151-1.378,0.447c-0.274,0.302-0.41,0.802-0.41,1.508v1.03h3.249v3.146h-3.249V25.42h-4.712V11.425h-2.817
			L279.056,11.434z"/>
		<path fill="#FEFEFD" d="M293.029,5.625V1.745h4.711v3.879H293.029z M297.74,8.279v17.147h-4.711V8.279H297.74z"/>
		<path fill="#FEFEFD" d="M305.166,21.313c0.706,0.685,1.727,1.029,3.05,1.029c0.953,0,1.77-0.24,2.454-0.714
			c0.688-0.473,1.106-0.981,1.264-1.508h4.142c-0.66,2.057-1.681,3.531-3.053,4.409c-1.378,0.885-3.03,1.323-4.977,1.323
			c-1.351,0-2.565-0.212-3.647-0.644c-1.085-0.432-2.004-1.042-2.751-1.844c-0.755-0.795-1.329-1.749-1.741-2.852
			c-0.404-1.104-0.617-2.325-0.617-3.648c0-1.323,0.213-2.476,0.632-3.58c0.417-1.104,1.015-2.063,1.789-2.865
			c0.773-0.811,1.692-1.44,2.769-1.908c1.07-0.466,2.264-0.697,3.567-0.697c1.459,0,2.729,0.281,3.812,0.842
			c1.084,0.562,1.976,1.323,2.667,2.269c0.693,0.953,1.199,2.038,1.508,3.25c0.309,1.215,0.419,2.489,0.336,3.813H304
			c0.068,1.527,0.453,2.631,1.159,3.318L305.166,21.313z M310.485,12.297c-0.562-0.617-1.419-0.925-2.569-0.925
			c-0.755,0-1.378,0.13-1.874,0.383c-0.5,0.253-0.897,0.57-1.191,0.947c-0.302,0.376-0.508,0.774-0.631,1.193
			c-0.124,0.419-0.191,0.795-0.213,1.125h7.659C311.446,13.826,311.056,12.92,310.485,12.297L310.485,12.297z"/>
		<path fill="#FEFEFD" d="M330.672,23.24c-0.555,0.932-1.276,1.598-2.174,2.008c-0.891,0.413-1.905,0.619-3.03,0.619
			c-1.283,0-2.414-0.247-3.38-0.749c-0.975-0.494-1.776-1.172-2.408-2.023c-0.629-0.851-1.104-1.831-1.425-2.935
			c-0.323-1.104-0.48-2.254-0.48-3.448s0.157-2.263,0.48-3.333c0.321-1.07,0.796-2.016,1.425-2.837
			c0.632-0.816,1.421-1.476,2.374-1.976c0.953-0.5,2.057-0.747,3.318-0.747c1.014,0,1.981,0.212,2.9,0.645
			c0.919,0.432,1.645,1.07,2.174,1.906h0.068V1.745h4.711v23.681h-4.479V23.24h-0.067H330.672z M330.475,14.764
			c-0.133-0.651-0.357-1.227-0.681-1.727c-0.321-0.494-0.734-0.897-1.24-1.214c-0.509-0.309-1.153-0.466-1.921-0.466
			s-1.425,0.151-1.952,0.466c-0.53,0.308-0.962,0.721-1.276,1.227c-0.323,0.508-0.549,1.091-0.693,1.742
			c-0.143,0.653-0.213,1.331-0.213,2.044c0,0.666,0.076,1.323,0.228,1.988c0.157,0.666,0.404,1.255,0.747,1.776
			c0.342,0.521,0.773,0.938,1.295,1.261c0.521,0.321,1.146,0.48,1.874,0.48c0.774,0,1.419-0.151,1.939-0.468
			c0.521-0.309,0.932-0.726,1.24-1.24c0.309-0.521,0.529-1.11,0.659-1.776c0.13-0.666,0.198-1.351,0.198-2.057
			s-0.068-1.385-0.198-2.044L330.475,14.764z"/>
	</g>
	<g>
		<path fill="#FEFEFD" d="M215.741,207.489c-0.24-1.659-1.823-2.92-3.647-2.92c-3.291,0-4.533,2.803-4.533,5.726
			c0,2.92,1.242,5.581,4.533,5.581c2.241,0,3.512-1.542,3.785-3.737h3.559c-0.376,4.163-3.25,6.823-7.336,6.823
			c-5.164,0-8.194-3.854-8.194-8.66c0-4.808,3.037-8.811,8.194-8.811c3.667,0,6.747,2.152,7.191,5.998H215.741z"/>
		<path fill="#FEFEFD" d="M227.091,206.16c3.805,0,6.259,2.517,6.259,6.377s-2.454,6.354-6.259,6.354
			c-3.808,0-6.234-2.522-6.234-6.354C220.856,208.704,223.311,206.16,227.091,206.16z M227.091,216.391
			c2.261,0,2.939-1.941,2.939-3.854c0-1.915-0.679-3.874-2.939-3.874c-2.264,0-2.923,1.94-2.923,3.874
			C224.168,214.47,224.847,216.391,227.091,216.391z"/>
		<path fill="#FEFEFD" d="M235.392,206.469h3.148v2.241h0.049c0.602-1.514,2.241-2.564,3.852-2.564c0.234,0,0.515,0.049,0.728,0.117
			v3.086c-0.309-0.068-0.796-0.117-1.193-0.117c-2.434,0-3.277,1.755-3.277,3.873v5.445h-3.312v-12.075L235.392,206.469z"/>
		<path fill="#FEFEFD" d="M244.472,206.49h3.154v1.542h0.047c0.795-1.283,2.1-1.865,3.593-1.865c3.785,0,5.484,3.058,5.484,6.493
			c0,3.223-1.767,6.238-5.3,6.238c-1.446,0-2.824-0.63-3.62-1.823h-0.047v5.745h-3.312v-16.324V206.49z M253.433,212.564
			c0-1.921-0.774-3.901-2.893-3.901c-2.121,0-2.874,1.94-2.874,3.901s0.747,3.826,2.893,3.826
			C252.705,216.391,253.433,214.525,253.433,212.564z"/>
		<path fill="#FEFEFD" d="M264.033,206.16c3.805,0,6.266,2.517,6.266,6.377s-2.454,6.354-6.266,6.354
			c-3.813,0-6.234-2.522-6.234-6.354C257.799,208.704,260.256,206.16,264.033,206.16z M264.033,216.391
			c2.263,0,2.941-1.941,2.941-3.854c0-1.915-0.679-3.874-2.941-3.874c-2.264,0-2.92,1.94-2.92,3.874
			C261.113,214.47,261.791,216.391,264.033,216.391z"/>
		<path fill="#FEFEFD" d="M272.343,206.469h3.154v2.241h0.047c0.604-1.514,2.244-2.564,3.854-2.564c0.233,0,0.515,0.049,0.727,0.117
			v3.086c-0.302-0.068-0.795-0.117-1.192-0.117c-2.427,0-3.271,1.755-3.271,3.873v5.445h-3.318v-12.075V206.469z"/>
		<path fill="#FEFEFD" d="M281.091,210.199c0.193-3.107,2.97-4.039,5.679-4.039c2.406,0,5.301,0.534,5.301,3.429v6.287
			c0,1.098,0.115,2.192,0.423,2.688h-3.364c-0.117-0.379-0.213-0.776-0.234-1.174c-1.049,1.098-2.584,1.495-4.058,1.495
			c-2.291,0-4.107-1.145-4.107-3.62c0-2.729,2.057-3.389,4.107-3.669c2.028-0.302,3.928-0.231,3.928-1.591
			c0-1.357-0.986-1.632-2.152-1.632c-1.263,0-2.078,0.515-2.194,1.825H281.1H281.091z M288.759,212.653
			c-0.563,0.494-1.729,0.513-2.757,0.7c-1.029,0.204-1.961,0.562-1.961,1.773c0,1.215,0.959,1.545,2.035,1.545
			c2.593,0,2.688-2.051,2.688-2.778v-1.24H288.759z"/>
		<path fill="#FEFEFD" d="M298.768,206.49h2.428v2.22h-2.428v5.973c0,1.125,0.281,1.406,1.4,1.406c0.349,0,0.678-0.021,1.027-0.09
			v2.591c-0.563,0.098-1.289,0.117-1.94,0.117c-2.029,0-3.805-0.473-3.805-2.871v-7.126h-2.01v-2.22h2.01v-3.623h3.312v3.623
			H298.768z"/>
		<path fill="#FEFEFD" d="M307.017,204.618h-3.318v-2.737h3.318V204.618z M303.705,206.49h3.317v12.074h-3.317V206.49z"/>
		<path fill="#FEFEFD" d="M315.478,206.16c3.813,0,6.268,2.517,6.268,6.377s-2.454,6.354-6.268,6.354
			c-3.812,0-6.232-2.522-6.232-6.354C309.245,208.704,311.693,206.16,315.478,206.16z M315.478,216.391
			c2.269,0,2.947-1.941,2.947-3.854c0-1.915-0.67-3.874-2.947-3.874c-2.276,0-2.921,1.94-2.921,3.874
			C312.557,214.47,313.235,216.391,315.478,216.391z"/>
		<path fill="#FEFEFD" d="M323.892,206.49h3.154v1.678h0.067c0.843-1.357,2.291-2.008,3.688-2.008c3.524,0,4.415,1.982,4.415,4.971
			v7.425h-3.317v-6.821c0-1.981-0.583-2.969-2.125-2.969c-1.804,0-2.571,1.008-2.571,3.463v6.327h-3.318v-12.074L323.892,206.49z"/>
	</g>
</g>
</svg>
