<?xml version="1.0" encoding="utf-8"?>
<!-- Generator: Adobe Illustrator 16.0.0, SVG Export Plug-In . SVG Version: 6.00 Build 0)  -->
<!DOCTYPE svg PUBLIC "-//W3C//DTD SVG 1.1//EN" "http://www.w3.org/Graphics/SVG/1.1/DTD/svg11.dtd">
<svg version="1.1" xmlns="http://www.w3.org/2000/svg" xmlns:xlink="http://www.w3.org/1999/xlink" x="0px" y="0px"
	 width="560px" height="340px" viewBox="0 0 560 340" enable-background="new 0 0 560 340" xml:space="preserve">
<g class="st3" style="opacity:.5;">
	<path fill="#00ff53" d="M126.2,156.484c-2.547,0.684-5.165,1.126-7.834,1.346c-5.699,0.465-11.337-0.171-16.769-1.876
		c-5.616-1.762-10.763-4.616-15.296-8.453c-4.529-3.849-8.168-8.465-10.812-13.735c-2.561-5.081-4.095-10.548-4.551-16.243
		c-0.465-5.695,0.171-11.337,1.877-16.765c1.762-5.621,4.616-10.768,8.452-15.296l0,0l45.853-53.968
		c3.849-4.529,8.466-8.168,13.735-10.812c5.077-2.56,10.548-4.095,16.243-4.55c5.695-0.465,11.333,0.171,16.765,1.876
		c5.621,1.762,10.767,4.616,15.296,8.452c4.528,3.85,8.172,8.466,10.815,13.735c2.556,5.081,4.095,10.548,4.546,16.243
		c0.465,5.695-0.171,11.337-1.876,16.765c-1.763,5.621-4.612,10.768-8.453,15.301l-45.862,53.963
		c-3.85,4.529-8.461,8.167-13.731,10.811c-2.7,1.368-5.515,2.429-8.417,3.205H126.2z M150.51,22.313
		c-7.589,2.026-14.384,6.3-19.588,12.425L85.068,88.702c-6.747,7.939-10.009,18.045-9.163,28.431
		c0.842,10.39,5.686,19.829,13.63,26.585c7.939,6.747,18.045,10.009,28.431,9.163c10.386-0.841,19.825-5.686,26.585-13.625
		l45.857-53.964c6.752-7.944,10.009-18.045,9.167-28.435c-0.841-10.386-5.686-19.825-13.63-26.581
		c-7.939-6.752-18.045-10.009-28.431-9.167c-2.39,0.188-4.73,0.596-6.993,1.205H150.51z"/>
</g>
<path fill="#ffffff" d="M145.99,114.09c0,16.822-13.639,30.46-30.46,30.46c-16.822,0-30.461-13.639-30.461-30.46
	s13.639-30.461,30.461-30.461C132.351,83.629,145.99,97.268,145.99,114.09"/>
<path fill="#ffffff" d="M169.988,137.698h17.483V90.521h-19.947v-6.804h19.947v-2.938c0-16.787,6.695-23.126,22.416-23.126h13.494
	v6.804h-13.38c-11.508,0-15.024,4.104-15.024,16.313v2.938h26.528v6.804h-26.528v47.177h19.25v6.804h-44.249v-6.804L169.988,137.698
	z"/>
<path fill="#ffffff" d="M228.674,137.698h17.483V90.521h-19.952v-6.804h19.952v-2.938c0-16.787,6.69-23.126,22.42-23.126h13.486
	v6.804h-13.381c-11.504,0-15.02,4.104-15.02,16.313v2.938h26.523v6.804h-26.523v47.177h19.246v6.804H228.66v-6.804L228.674,137.698z
	"/>
<path fill="#ffffff" d="M345.106,114.112c0-19.952,9.732-31.456,26.638-31.456c14.555,0,22.999,8.566,23.823,21.123h-7.392
	c-1.175-9.154-6.69-13.968-16.546-13.968c-12.214,0-18.316,8.102-18.316,24.288c0,16.19,6.103,24.292,18.316,24.292
	c9.855,0,15.722-4.928,16.782-14.082h7.286c-0.701,12.556-9.514,21.236-23.945,21.236c-16.896,0-26.646-11.618-26.646-31.456
	V114.112z"/>
<path fill="#ffffff" d="M399.854,114.112c0-19.952,9.741-31.456,26.875-31.456c17.142,0,26.05,10.917,23.822,31.916h-42.596
	c0.237,15.963,6.34,23.714,18.659,23.714c8.452,0,14.905-3.753,16.309-11.268h7.4c-1.421,10.917-10.803,18.549-24.068,18.549
	C409.596,145.567,399.854,134.059,399.854,114.112z M408.193,107.891h34.854c0.122-11.381-5.752-18.308-16.537-18.308
	C415.708,89.583,409.719,96.15,408.193,107.891z"/>
<path fill="#ffffff" d="M246.118,215.771V187.02h-15.844v-6.805h15.844v-18.313h7.519v18.313h30.285v6.805h-30.285v28.873
	c0,13.03,4.463,18.309,16.659,18.309h11.854v6.804H270.06C252.813,241.005,246.118,233.851,246.118,215.771L246.118,215.771z"/>
<path fill="#ffffff" d="M288.288,210.614c0-19.947,9.732-31.451,26.875-31.451c17.133,0,26.05,10.916,23.823,31.925H296.39
	c0.229,15.958,6.34,23.709,18.659,23.709c8.452,0,14.906-3.752,16.309-11.275h7.4c-1.42,10.925-10.802,18.553-24.068,18.553
	C298.021,242.074,288.288,230.571,288.288,210.614z M296.618,204.389h34.854c0.114-11.381-5.752-18.308-16.546-18.308
	C304.133,186.081,298.144,192.648,296.618,204.389z"/>
<path fill="#ffffff" d="M345.106,210.614c0-19.947,9.732-31.451,26.638-31.451c14.555,0,22.999,8.566,23.823,21.122h-7.392
	c-1.175-9.153-6.69-13.967-16.546-13.967c-12.214,0-18.316,8.11-18.316,24.296c0,16.187,6.103,24.288,18.316,24.288
	c9.855,0,15.722-4.928,16.782-14.082h7.286c-0.701,12.557-9.514,21.237-23.945,21.237c-16.896,0-26.646-11.627-26.646-31.461
	V210.614z"/>
<path fill="#ffffff" d="M401.774,154.16h7.515v26.055l-0.474,5.752l2.701,0.588c4.472-5.042,9.504-7.392,17.133-7.392
	c13.626,0,20.307,7.041,20.307,20.667v41.192h-7.522v-39.316c0-10.338-4.806-15.266-15.134-15.266
	c-10.908,0-17.011,5.41-17.011,15.266v39.316h-7.522v-86.854L401.774,154.16z"/>
<path fill="#ffffff" d="M289.797,319.322h7.628c0.579,8.225,6.33,12.1,16.309,12.1c9.97,0,16.195-3.875,16.195-10.925
	c0-5.155-3.288-8.216-9.979-9.741l-13.739-2.938c-9.733-1.999-14.082-6.927-14.082-14.783c0-11.03,8.225-17.378,21.833-17.378
	c12.556,0,22.061,5.523,22.998,17.843h-7.391c-0.938-7.154-6.576-10.794-15.502-10.794c-8.909,0-14.188,3.402-14.188,9.619
	c0,4.577,2.701,7.155,8.207,8.33l13.74,3.051c11.029,2.35,15.957,7.392,15.957,16.195c0,11.854-9.039,18.658-24.296,18.658
	c-13.731,0-23.113-5.752-23.709-19.246L289.797,319.322z"/>
<path fill="#ffffff" d="M393.567,337.525h-6.103l-0.938-6.349h-2.701c-4.34,5.051-9.391,7.4-17.133,7.4
	c-13.503,0-20.308-7.155-20.308-20.657v-41.211h7.523v39.325c0,10.338,4.805,15.266,15.257,15.266
	c10.442,0,16.896-5.524,16.896-15.266v-39.325h7.515v60.799L393.567,337.525z"/>
<path fill="#ffffff" d="M466.58,312.281V283.53h-15.844v-6.804h15.844v-18.308h7.523v18.308h30.276v6.804h-30.276v28.865
	c0,13.029,4.454,18.308,16.659,18.308h11.855v6.805h-12.101c-17.238,0-23.938-7.155-23.938-25.235V312.281z"/>
<path fill="#ffffff" d="M508.957,307.117c0-19.947,9.741-31.46,26.874-31.46s26.06,10.925,23.832,31.925h-42.604
	c0.237,15.967,6.34,23.718,18.667,23.718c8.453,0,14.906-3.753,16.31-11.276h7.383c-1.403,10.926-10.785,18.554-24.06,18.554
	C518.698,338.577,508.957,327.073,508.957,307.117z M517.286,300.9h34.854c0.123-11.381-5.752-18.316-16.536-18.316
	C524.801,282.584,518.813,289.16,517.286,300.9z"/>
<path fill="#00ff53" d="M114.828,157.983H44.012c-5.94,0-11.701-1.166-17.133-3.463c-5.244-2.214-9.952-5.392-13.99-9.43
	c-4.037-4.033-7.211-8.746-9.43-13.985C1.166,125.672,0,119.912,0,113.967c0-5.94,1.166-11.706,3.459-17.133
	c2.218-5.244,5.393-9.952,9.43-13.99c4.038-4.038,8.747-7.212,13.99-9.43c5.432-2.293,11.192-3.459,17.133-3.459h70.816
	c5.945,0,11.706,1.166,17.137,3.459c5.239,2.218,9.952,5.393,13.99,9.43c4.033,4.038,7.211,8.746,9.43,13.99
	c2.293,5.427,3.459,11.192,3.459,17.133c0,5.945-1.166,11.706-3.459,17.137c-2.218,5.239-5.396,9.952-9.43,13.985
	c-4.038,4.038-8.751,7.216-13.99,9.43C126.533,156.817,120.772,157.983,114.828,157.983z M44.012,74.94
	c-10.426,0-20.224,4.055-27.598,11.429c-7.37,7.374-11.43,17.172-11.43,27.598s4.06,20.224,11.43,27.598
	c7.374,7.374,17.172,11.429,27.598,11.429h70.816c10.425,0,20.224-4.055,27.598-11.429s11.429-17.173,11.429-27.598
	s-4.055-20.224-11.429-27.598S125.253,74.94,114.828,74.94H44.012z"/>
<g class="st2">
	<path fill="#00ff53" d="M117.371,157.904c-2.959,0.171-5.923,0.048-8.882-0.377c-5.629-0.815-10.982-2.701-15.923-5.594
		c-4.928-2.889-9.193-6.642-12.661-11.145c-3.591-4.673-6.177-9.952-7.677-15.704L54.323,56.57
		c-1.495-5.743-1.828-11.618-0.982-17.444c0.815-5.634,2.701-10.987,5.59-15.923c2.889-4.928,6.642-9.193,11.145-12.661
		c4.673-3.595,9.952-6.182,15.704-7.676c5.743-1.5,11.623-1.833,17.449-0.987c5.629,0.824,10.986,2.701,15.923,5.59
		c4.928,2.894,9.193,6.646,12.661,11.144c3.591,4.674,6.182,9.952,7.677,15.708l17.904,68.51c1.495,5.743,1.828,11.618,0.986,17.448
		c-0.824,5.629-2.7,10.982-5.594,15.923c-2.889,4.928-6.642,9.193-11.145,12.661c-4.673,3.59-9.952,6.177-15.704,7.676
		C123.101,157.282,120.242,157.733,117.371,157.904z M94.691,6.465C92.14,6.618,89.58,7.026,87.05,7.679
		c-10.083,2.635-18.536,9.04-23.806,18.036c-5.27,8.992-6.721,19.505-4.086,29.588l17.905,68.51
		c2.635,10.083,9.04,18.541,18.031,23.81c6.738,3.941,14.332,5.752,21.951,5.296c2.552-0.153,5.107-0.557,7.642-1.214
		c10.083-2.635,18.536-9.04,23.806-18.036c5.27-8.992,6.721-19.5,4.086-29.588l-17.904-68.51
		c-2.635-10.083-9.04-18.536-18.036-23.806C109.9,7.819,102.312,6.009,94.691,6.465z"/>
</g>
<g>
	<polygon fill="#ffffff" points="286.062,137.698 310.244,137.698 310.244,90.521 288.411,90.521 288.411,83.717 317.749,83.717 
		317.749,137.698 339.811,137.698 339.811,144.502 286.062,144.502 	"/>
	<path fill="#ffffff" d="M317.749,63.861c0,3.507-2.84,6.348-6.348,6.348s-6.348-2.841-6.348-6.348s2.84-6.353,6.348-6.353
		S317.749,60.354,317.749,63.861"/>
</g>
<g>
	<polygon fill="#ffffff" points="400.275,330.703 424.44,330.703 424.44,283.53 402.608,283.53 402.608,276.727 431.946,276.727 
		431.946,330.703 454.024,330.703 454.024,337.525 400.275,337.525 	"/>
	<path fill="#ffffff" d="M431.946,257.077c0,3.507-2.841,6.348-6.349,6.348c-3.507,0-6.348-2.841-6.348-6.348
		s2.841-6.349,6.348-6.349C429.105,250.729,431.946,253.57,431.946,257.077"/>
</g>
</svg>
